<svg xmlns="http://www.w3.org/2000/svg" xmlns:xlink="http://www.w3.org/1999/xlink" width="1080" zoomAndPan="magnify" viewBox="0 0 810 809.999993" height="1080" preserveAspectRatio="xMidYMid meet" version="1.0"><defs><clipPath id="3c6dfdfb37"><path d="M 124 59.933594 L 642.921875 59.933594 L 642.921875 719.933594 L 124 719.933594 Z M 124 59.933594 " clip-rule="nonzero"/></clipPath></defs><path fill="#4fc0e8" d="M 453.933594 83.496094 L 453.933594 201.289062 C 453.929688 202.832031 454.007812 204.375 454.160156 205.910156 C 454.308594 207.445312 454.535156 208.96875 454.835938 210.484375 C 455.136719 211.996094 455.511719 213.492188 455.960938 214.96875 C 456.410156 216.445312 456.929688 217.894531 457.519531 219.320312 C 458.109375 220.746094 458.769531 222.140625 459.496094 223.503906 C 460.222656 224.863281 461.015625 226.183594 461.871094 227.46875 C 462.730469 228.75 463.648438 229.988281 464.628906 231.183594 C 465.605469 232.375 466.640625 233.515625 467.730469 234.609375 C 468.824219 235.699219 469.964844 236.734375 471.160156 237.714844 C 472.351562 238.691406 473.589844 239.609375 474.871094 240.46875 C 476.15625 241.324219 477.476562 242.117188 478.839844 242.84375 C 480.199219 243.574219 481.59375 244.230469 483.019531 244.824219 C 484.445312 245.414062 485.894531 245.933594 487.371094 246.378906 C 488.847656 246.828125 490.34375 247.203125 491.859375 247.503906 C 493.371094 247.804688 494.894531 248.03125 496.433594 248.183594 C 497.96875 248.332031 499.507812 248.410156 501.050781 248.410156 L 618.847656 248.410156 Z M 453.933594 83.496094 " fill-opacity="1" fill-rule="nonzero"/><g clip-path="url(#3c6dfdfb37)"><path fill="#42d0fa" d="M 635.503906 231.753906 L 470.589844 66.835938 C 469.496094 65.742188 468.304688 64.765625 467.019531 63.90625 C 465.734375 63.046875 464.375 62.320312 462.945312 61.730469 C 461.515625 61.136719 460.042969 60.691406 458.527344 60.386719 C 457.011719 60.085938 455.476562 59.933594 453.933594 59.933594 L 194.78125 59.933594 C 193.621094 59.933594 192.464844 59.964844 191.3125 60.019531 C 190.15625 60.078125 189.003906 60.160156 187.851562 60.273438 C 186.699219 60.390625 185.554688 60.53125 184.410156 60.699219 C 183.265625 60.871094 182.125 61.066406 180.992188 61.292969 C 179.855469 61.519531 178.726562 61.773438 177.605469 62.054688 C 176.484375 62.335938 175.371094 62.640625 174.261719 62.976562 C 173.15625 63.3125 172.058594 63.675781 170.96875 64.066406 C 169.878906 64.457031 168.800781 64.871094 167.730469 65.316406 C 166.664062 65.757812 165.605469 66.226562 164.5625 66.722656 C 163.515625 67.214844 162.480469 67.734375 161.460938 68.28125 C 160.441406 68.824219 159.4375 69.394531 158.445312 69.992188 C 157.453125 70.585938 156.476562 71.203125 155.511719 71.847656 C 154.550781 72.488281 153.605469 73.15625 152.675781 73.84375 C 151.746094 74.53125 150.835938 75.246094 149.941406 75.976562 C 149.046875 76.710938 148.171875 77.46875 147.316406 78.242188 C 146.457031 79.019531 145.621094 79.816406 144.800781 80.636719 C 143.984375 81.453125 143.1875 82.292969 142.410156 83.148438 C 141.632812 84.003906 140.878906 84.882812 140.144531 85.773438 C 139.410156 86.667969 138.699219 87.582031 138.011719 88.511719 C 137.320312 89.4375 136.65625 90.382812 136.011719 91.347656 C 135.371094 92.308594 134.75 93.285156 134.15625 94.277344 C 133.5625 95.269531 132.992188 96.277344 132.445312 97.296875 C 131.902344 98.316406 131.382812 99.347656 130.886719 100.394531 C 130.394531 101.441406 129.925781 102.496094 129.480469 103.566406 C 129.039062 104.632812 128.621094 105.714844 128.234375 106.800781 C 127.84375 107.890625 127.480469 108.988281 127.144531 110.097656 C 126.808594 111.203125 126.5 112.316406 126.21875 113.441406 C 125.9375 114.5625 125.683594 115.691406 125.460938 116.824219 C 125.234375 117.957031 125.035156 119.097656 124.867188 120.242188 C 124.695312 121.386719 124.554688 122.535156 124.441406 123.683594 C 124.328125 124.835938 124.242188 125.988281 124.1875 127.144531 C 124.128906 128.300781 124.101562 129.457031 124.101562 130.613281 L 124.101562 648.917969 C 124.101562 650.074219 124.128906 651.230469 124.1875 652.386719 C 124.242188 653.539062 124.328125 654.695312 124.441406 655.84375 C 124.554688 656.996094 124.695312 658.144531 124.867188 659.289062 C 125.035156 660.433594 125.234375 661.570312 125.460938 662.707031 C 125.683594 663.839844 125.9375 664.96875 126.21875 666.089844 C 126.5 667.210938 126.808594 668.328125 127.144531 669.433594 C 127.480469 670.539062 127.84375 671.640625 128.234375 672.726562 C 128.621094 673.816406 129.039062 674.894531 129.480469 675.964844 C 129.925781 677.03125 130.394531 678.089844 130.886719 679.136719 C 131.382812 680.179688 131.902344 681.214844 132.445312 682.234375 C 132.992188 683.253906 133.5625 684.261719 134.15625 685.253906 C 134.75 686.246094 135.371094 687.222656 136.011719 688.183594 C 136.65625 689.144531 137.320312 690.089844 138.011719 691.019531 C 138.699219 691.949219 139.410156 692.859375 140.144531 693.753906 C 140.878906 694.648438 141.632812 695.523438 142.410156 696.382812 C 143.1875 697.238281 143.984375 698.074219 144.800781 698.894531 C 145.621094 699.710938 146.457031 700.507812 147.316406 701.285156 C 148.171875 702.0625 149.046875 702.816406 149.941406 703.550781 C 150.835938 704.285156 151.746094 704.996094 152.675781 705.6875 C 153.605469 706.375 154.550781 707.042969 155.511719 707.683594 C 156.476562 708.328125 157.453125 708.945312 158.445312 709.539062 C 159.4375 710.132812 160.441406 710.703125 161.460938 711.25 C 162.480469 711.792969 163.515625 712.316406 164.5625 712.808594 C 165.605469 713.304688 166.664062 713.773438 167.730469 714.214844 C 168.800781 714.65625 169.878906 715.074219 170.96875 715.464844 C 172.058594 715.851562 173.15625 716.214844 174.261719 716.550781 C 175.371094 716.886719 176.484375 717.195312 177.605469 717.476562 C 178.726562 717.757812 179.855469 718.011719 180.992188 718.238281 C 182.125 718.460938 183.265625 718.660156 184.410156 718.828125 C 185.554688 719 186.699219 719.140625 187.851562 719.253906 C 189.003906 719.367188 190.15625 719.453125 191.3125 719.511719 C 192.464844 719.566406 193.621094 719.59375 194.78125 719.59375 L 571.726562 719.59375 C 572.886719 719.59375 574.039062 719.566406 575.195312 719.511719 C 576.351562 719.453125 577.503906 719.367188 578.65625 719.253906 C 579.808594 719.140625 580.953125 719 582.097656 718.828125 C 583.242188 718.660156 584.382812 718.460938 585.515625 718.238281 C 586.652344 718.011719 587.78125 717.757812 588.902344 717.476562 C 590.023438 717.195312 591.136719 716.886719 592.246094 716.550781 C 593.351562 716.214844 594.449219 715.851562 595.539062 715.464844 C 596.628906 715.074219 597.707031 714.65625 598.773438 714.214844 C 599.84375 713.773438 600.902344 713.304688 601.945312 712.808594 C 602.992188 712.316406 604.023438 711.792969 605.046875 711.25 C 606.066406 710.703125 607.070312 710.132812 608.0625 709.539062 C 609.054688 708.945312 610.03125 708.328125 610.996094 707.683594 C 611.957031 707.042969 612.902344 706.375 613.832031 705.6875 C 614.761719 704.996094 615.671875 704.285156 616.566406 703.550781 C 617.460938 702.816406 618.335938 702.0625 619.191406 701.285156 C 620.050781 700.507812 620.886719 699.710938 621.703125 698.894531 C 622.523438 698.074219 623.320312 697.238281 624.097656 696.382812 C 624.875 695.523438 625.628906 694.648438 626.363281 693.753906 C 627.097656 692.859375 627.808594 691.949219 628.496094 691.019531 C 629.1875 690.089844 629.851562 689.144531 630.496094 688.183594 C 631.136719 687.222656 631.753906 686.246094 632.351562 685.253906 C 632.945312 684.261719 633.515625 683.253906 634.058594 682.234375 C 634.605469 681.214844 635.125 680.179688 635.621094 679.136719 C 636.113281 678.089844 636.582031 677.03125 637.027344 675.964844 C 637.46875 674.894531 637.882812 673.816406 638.273438 672.726562 C 638.664062 671.640625 639.027344 670.539062 639.363281 669.433594 C 639.699219 668.328125 640.007812 667.210938 640.289062 666.089844 C 640.570312 664.96875 640.820312 663.839844 641.046875 662.707031 C 641.273438 661.570312 641.472656 660.433594 641.640625 659.289062 C 641.8125 658.144531 641.953125 656.996094 642.066406 655.84375 C 642.179688 654.695312 642.265625 653.539062 642.320312 652.386719 C 642.378906 651.230469 642.40625 650.074219 642.40625 648.917969 L 642.40625 248.410156 C 642.40625 246.863281 642.253906 245.332031 641.953125 243.8125 C 641.648438 242.296875 641.203125 240.824219 640.609375 239.394531 C 640.019531 237.964844 639.292969 236.609375 638.433594 235.320312 C 637.574219 234.035156 636.597656 232.847656 635.503906 231.753906 Z M 477.492188 140.367188 L 561.972656 224.851562 L 501.050781 224.851562 C 500.277344 224.851562 499.507812 224.8125 498.742188 224.738281 C 497.972656 224.660156 497.210938 224.546875 496.453125 224.398438 C 495.699219 224.246094 494.949219 224.058594 494.210938 223.835938 C 493.472656 223.613281 492.746094 223.351562 492.035156 223.058594 C 491.320312 222.761719 490.625 222.433594 489.945312 222.066406 C 489.265625 221.703125 488.601562 221.308594 487.960938 220.878906 C 487.320312 220.449219 486.699219 219.992188 486.105469 219.503906 C 485.507812 219.011719 484.9375 218.496094 484.390625 217.949219 C 483.84375 217.402344 483.328125 216.832031 482.839844 216.238281 C 482.347656 215.640625 481.890625 215.019531 481.460938 214.378906 C 481.03125 213.738281 480.636719 213.078125 480.273438 212.394531 C 479.910156 211.714844 479.578125 211.019531 479.285156 210.304688 C 478.988281 209.59375 478.730469 208.867188 478.503906 208.128906 C 478.28125 207.390625 478.09375 206.644531 477.945312 205.886719 C 477.792969 205.128906 477.679688 204.367188 477.605469 203.601562 C 477.527344 202.832031 477.492188 202.0625 477.492188 201.289062 Z M 571.726562 672.476562 L 194.78125 672.476562 C 194.007812 672.476562 193.238281 672.4375 192.46875 672.363281 C 191.703125 672.289062 190.941406 672.175781 190.183594 672.023438 C 189.425781 671.875 188.679688 671.6875 187.941406 671.460938 C 187.203125 671.238281 186.476562 670.976562 185.765625 670.683594 C 185.050781 670.386719 184.355469 670.058594 183.671875 669.695312 C 182.992188 669.332031 182.332031 668.933594 181.691406 668.507812 C 181.050781 668.078125 180.429688 667.617188 179.832031 667.128906 C 179.238281 666.640625 178.667969 666.121094 178.121094 665.574219 C 177.574219 665.03125 177.058594 664.460938 176.566406 663.863281 C 176.078125 663.265625 175.621094 662.648438 175.191406 662.007812 C 174.761719 661.363281 174.367188 660.703125 174.003906 660.023438 C 173.636719 659.34375 173.308594 658.644531 173.011719 657.933594 C 172.71875 657.21875 172.457031 656.496094 172.234375 655.757812 C 172.011719 655.019531 171.824219 654.269531 171.671875 653.511719 C 171.523438 652.757812 171.410156 651.996094 171.332031 651.226562 C 171.257812 650.457031 171.21875 649.6875 171.21875 648.917969 L 171.21875 130.613281 C 171.21875 129.839844 171.257812 129.070312 171.332031 128.304688 C 171.410156 127.535156 171.523438 126.773438 171.671875 126.015625 C 171.824219 125.261719 172.011719 124.511719 172.234375 123.773438 C 172.457031 123.035156 172.71875 122.308594 173.011719 121.597656 C 173.308594 120.882812 173.636719 120.1875 174.003906 119.507812 C 174.367188 118.828125 174.761719 118.164062 175.191406 117.523438 C 175.621094 116.882812 176.078125 116.261719 176.566406 115.667969 C 177.058594 115.070312 177.574219 114.5 178.121094 113.953125 C 178.667969 113.410156 179.238281 112.890625 179.832031 112.402344 C 180.429688 111.910156 181.050781 111.453125 181.691406 111.023438 C 182.332031 110.59375 182.992188 110.199219 183.671875 109.835938 C 184.355469 109.472656 185.050781 109.140625 185.765625 108.847656 C 186.476562 108.550781 187.203125 108.292969 187.941406 108.066406 C 188.679688 107.84375 189.425781 107.65625 190.183594 107.507812 C 190.941406 107.355469 191.703125 107.242188 192.46875 107.167969 C 193.238281 107.089844 194.007812 107.054688 194.78125 107.054688 L 430.371094 107.054688 L 430.371094 201.289062 C 430.371094 202.449219 430.402344 203.601562 430.457031 204.757812 C 430.515625 205.914062 430.597656 207.066406 430.710938 208.21875 C 430.824219 209.371094 430.96875 210.515625 431.136719 211.660156 C 431.308594 212.804688 431.503906 213.945312 431.730469 215.078125 C 431.957031 216.214844 432.210938 217.34375 432.492188 218.464844 C 432.773438 219.585938 433.078125 220.699219 433.414062 221.808594 C 433.75 222.914062 434.113281 224.011719 434.503906 225.101562 C 434.894531 226.191406 435.308594 227.269531 435.753906 228.339844 C 436.195312 229.40625 436.664062 230.464844 437.15625 231.507812 C 437.652344 232.554688 438.171875 233.589844 438.71875 234.609375 C 439.261719 235.628906 439.832031 236.632812 440.429688 237.625 C 441.023438 238.617188 441.640625 239.59375 442.285156 240.558594 C 442.925781 241.519531 443.59375 242.464844 444.28125 243.394531 C 444.96875 244.324219 445.683594 245.234375 446.414062 246.128906 C 447.148438 247.023438 447.90625 247.898438 448.679688 248.753906 C 449.457031 249.613281 450.253906 250.449219 451.074219 251.265625 C 451.890625 252.085938 452.730469 252.882812 453.585938 253.660156 C 454.441406 254.4375 455.320312 255.191406 456.210938 255.925781 C 457.105469 256.660156 458.019531 257.371094 458.949219 258.058594 C 459.875 258.75 460.820312 259.414062 461.785156 260.058594 C 462.746094 260.699219 463.722656 261.320312 464.714844 261.914062 C 465.707031 262.507812 466.710938 263.078125 467.734375 263.621094 C 468.753906 264.167969 469.785156 264.6875 470.832031 265.183594 C 471.878906 265.675781 472.933594 266.144531 474.003906 266.589844 C 475.070312 267.03125 476.152344 267.449219 477.238281 267.835938 C 478.328125 268.226562 479.425781 268.589844 480.535156 268.925781 C 481.640625 269.261719 482.753906 269.570312 483.875 269.851562 C 485 270.132812 486.128906 270.386719 487.261719 270.609375 C 488.394531 270.835938 489.535156 271.035156 490.679688 271.203125 C 491.824219 271.375 492.972656 271.515625 494.121094 271.628906 C 495.273438 271.742188 496.425781 271.828125 497.582031 271.882812 C 498.738281 271.941406 499.894531 271.96875 501.050781 271.96875 L 595.289062 271.96875 L 595.289062 648.917969 C 595.289062 649.6875 595.25 650.457031 595.175781 651.226562 C 595.097656 651.996094 594.984375 652.757812 594.835938 653.511719 C 594.683594 654.269531 594.496094 655.019531 594.273438 655.757812 C 594.050781 656.496094 593.789062 657.21875 593.492188 657.933594 C 593.199219 658.644531 592.871094 659.34375 592.503906 660.023438 C 592.140625 660.703125 591.746094 661.363281 591.316406 662.007812 C 590.886719 662.648438 590.429688 663.265625 589.941406 663.863281 C 589.449219 664.460938 588.933594 665.03125 588.386719 665.574219 C 587.839844 666.121094 587.269531 666.640625 586.675781 667.128906 C 586.078125 667.617188 585.457031 668.078125 584.816406 668.507812 C 584.175781 668.933594 583.515625 669.332031 582.832031 669.695312 C 582.152344 670.058594 581.457031 670.386719 580.742188 670.683594 C 580.03125 670.976562 579.304688 671.238281 578.566406 671.460938 C 577.828125 671.6875 577.082031 671.875 576.324219 672.023438 C 575.566406 672.175781 574.804688 672.289062 574.039062 672.363281 C 573.269531 672.4375 572.5 672.476562 571.726562 672.476562 Z M 571.726562 672.476562 " fill-opacity="1" fill-rule="nonzero"/></g><path fill="#42d0fa" d="M 453.933594 601.796875 C 452.671875 601.796875 451.421875 601.699219 450.179688 601.5 C 448.9375 601.296875 447.71875 601 446.523438 600.605469 C 445.328125 600.207031 444.171875 599.71875 443.054688 599.136719 C 441.9375 598.558594 440.875 597.890625 439.863281 597.140625 C 438.855469 596.386719 437.910156 595.558594 437.03125 594.65625 C 436.15625 593.753906 435.355469 592.785156 434.632812 591.753906 C 433.910156 590.722656 433.277344 589.640625 432.726562 588.507812 C 432.179688 587.375 431.722656 586.207031 431.363281 585 L 383.253906 424.632812 L 335.144531 585 C 334.785156 586.207031 334.328125 587.375 333.78125 588.511719 C 333.234375 589.644531 332.597656 590.726562 331.875 591.757812 C 331.152344 592.789062 330.351562 593.757812 329.476562 594.660156 C 328.597656 595.5625 327.65625 596.390625 326.644531 597.140625 C 325.636719 597.894531 324.570312 598.5625 323.453125 599.140625 C 322.335938 599.722656 321.183594 600.210938 319.988281 600.609375 C 318.792969 601.003906 317.570312 601.300781 316.328125 601.503906 C 315.085938 601.703125 313.835938 601.804688 312.574219 601.804688 C 311.316406 601.804688 310.066406 601.703125 308.824219 601.503906 C 307.578125 601.300781 306.359375 601.003906 305.164062 600.609375 C 303.96875 600.210938 302.8125 599.722656 301.695312 599.140625 C 300.582031 598.5625 299.515625 597.894531 298.507812 597.140625 C 297.496094 596.390625 296.554688 595.5625 295.675781 594.660156 C 294.796875 593.757812 294 592.789062 293.277344 591.757812 C 292.554688 590.726562 291.917969 589.644531 291.371094 588.511719 C 290.820312 587.375 290.367188 586.207031 290.007812 585 L 219.328125 349.40625 C 219.105469 348.667969 218.921875 347.921875 218.773438 347.164062 C 218.625 346.40625 218.515625 345.644531 218.441406 344.875 C 218.371094 344.105469 218.335938 343.335938 218.335938 342.566406 C 218.339844 341.792969 218.378906 341.023438 218.457031 340.257812 C 218.535156 339.488281 218.652344 338.726562 218.804688 337.96875 C 218.960938 337.214844 219.148438 336.46875 219.375 335.730469 C 219.601562 334.992188 219.863281 334.265625 220.160156 333.554688 C 220.460938 332.84375 220.792969 332.148438 221.15625 331.46875 C 221.523438 330.789062 221.921875 330.128906 222.351562 329.488281 C 222.785156 328.847656 223.246094 328.230469 223.738281 327.636719 C 224.230469 327.042969 224.75 326.472656 225.296875 325.929688 C 225.84375 325.386719 226.414062 324.871094 227.015625 324.382812 C 227.613281 323.894531 228.234375 323.4375 228.875 323.011719 C 229.519531 322.585938 230.179688 322.191406 230.863281 321.828125 C 231.546875 321.46875 232.242188 321.140625 232.957031 320.847656 C 233.671875 320.554688 234.398438 320.296875 235.136719 320.078125 C 235.875 319.855469 236.625 319.671875 237.382812 319.523438 C 238.136719 319.375 238.902344 319.265625 239.667969 319.191406 C 240.4375 319.117188 241.207031 319.082031 241.980469 319.085938 C 242.75 319.089844 243.519531 319.128906 244.289062 319.207031 C 245.054688 319.285156 245.816406 319.402344 246.574219 319.554688 C 247.332031 319.707031 248.078125 319.898438 248.816406 320.125 C 249.554688 320.351562 250.277344 320.613281 250.988281 320.910156 C 251.703125 321.207031 252.398438 321.539062 253.078125 321.90625 C 253.753906 322.273438 254.414062 322.671875 255.054688 323.101562 C 255.695312 323.53125 256.3125 323.992188 256.90625 324.484375 C 257.503906 324.976562 258.070312 325.496094 258.617188 326.042969 C 259.160156 326.589844 259.675781 327.164062 260.164062 327.761719 C 260.648438 328.359375 261.105469 328.980469 261.535156 329.625 C 261.960938 330.265625 262.355469 330.929688 262.714844 331.613281 C 263.078125 332.292969 263.402344 332.992188 263.695312 333.707031 C 263.988281 334.417969 264.246094 335.144531 264.46875 335.886719 L 312.574219 496.253906 L 360.683594 335.886719 C 361.046875 334.679688 361.5 333.507812 362.046875 332.375 C 362.597656 331.242188 363.234375 330.160156 363.953125 329.128906 C 364.675781 328.097656 365.476562 327.128906 366.355469 326.226562 C 367.230469 325.324219 368.175781 324.496094 369.183594 323.742188 C 370.195312 322.992188 371.257812 322.324219 372.375 321.742188 C 373.492188 321.164062 374.648438 320.671875 375.84375 320.277344 C 377.039062 319.882812 378.257812 319.582031 379.5 319.382812 C 380.742188 319.183594 381.996094 319.082031 383.253906 319.082031 C 384.511719 319.082031 385.765625 319.183594 387.007812 319.382812 C 388.25 319.582031 389.46875 319.882812 390.664062 320.277344 C 391.859375 320.671875 393.015625 321.164062 394.132812 321.742188 C 395.25 322.324219 396.3125 322.992188 397.324219 323.742188 C 398.332031 324.496094 399.277344 325.324219 400.152344 326.226562 C 401.03125 327.128906 401.832031 328.097656 402.554688 329.128906 C 403.273438 330.160156 403.910156 331.242188 404.460938 332.375 C 405.007812 333.507812 405.460938 334.679688 405.824219 335.886719 L 453.933594 496.253906 L 502.039062 335.886719 C 502.261719 335.144531 502.515625 334.417969 502.808594 333.703125 C 503.101562 332.988281 503.425781 332.289062 503.789062 331.605469 C 504.148438 330.921875 504.542969 330.257812 504.96875 329.617188 C 505.394531 328.972656 505.851562 328.351562 506.339844 327.75 C 506.828125 327.152344 507.34375 326.578125 507.886719 326.027344 C 508.429688 325.480469 509 324.960938 509.59375 324.46875 C 510.1875 323.976562 510.804688 323.511719 511.445312 323.082031 C 512.085938 322.648438 512.746094 322.25 513.425781 321.882812 C 514.105469 321.515625 514.800781 321.183594 515.515625 320.886719 C 516.226562 320.585938 516.953125 320.324219 517.691406 320.097656 C 518.429688 319.871094 519.175781 319.679688 519.933594 319.527344 C 520.691406 319.371094 521.453125 319.257812 522.21875 319.179688 C 522.988281 319.097656 523.757812 319.058594 524.53125 319.054688 C 525.304688 319.050781 526.074219 319.085938 526.84375 319.160156 C 527.613281 319.234375 528.375 319.34375 529.132812 319.492188 C 529.890625 319.640625 530.640625 319.824219 531.378906 320.046875 C 532.121094 320.269531 532.847656 320.527344 533.5625 320.820312 C 534.277344 321.113281 534.972656 321.4375 535.65625 321.800781 C 536.339844 322.164062 537.003906 322.558594 537.644531 322.984375 C 538.289062 323.410156 538.910156 323.867188 539.507812 324.355469 C 540.105469 324.84375 540.679688 325.363281 541.226562 325.90625 C 541.777344 326.449219 542.296875 327.019531 542.789062 327.617188 C 543.277344 328.210938 543.738281 328.828125 544.171875 329.46875 C 544.601562 330.113281 545 330.773438 545.367188 331.453125 C 545.730469 332.132812 546.0625 332.828125 546.363281 333.542969 C 546.660156 334.253906 546.921875 334.980469 547.148438 335.71875 C 547.375 336.457031 547.5625 337.203125 547.714844 337.960938 C 547.867188 338.71875 547.984375 339.480469 548.058594 340.25 C 548.136719 341.019531 548.175781 341.789062 548.179688 342.5625 C 548.179688 343.332031 548.144531 344.101562 548.070312 344.871094 C 547.996094 345.640625 547.886719 346.402344 547.738281 347.160156 C 547.585938 347.917969 547.402344 348.667969 547.179688 349.40625 L 476.5 585 C 476.140625 586.207031 475.683594 587.375 475.136719 588.507812 C 474.585938 589.640625 473.953125 590.722656 473.230469 591.753906 C 472.507812 592.785156 471.707031 593.753906 470.832031 594.65625 C 469.953125 595.558594 469.007812 596.386719 468 597.140625 C 466.988281 597.890625 465.925781 598.558594 464.808594 599.136719 C 463.691406 599.71875 462.535156 600.207031 461.339844 600.605469 C 460.144531 601 458.925781 601.296875 457.683594 601.5 C 456.441406 601.699219 455.191406 601.796875 453.933594 601.796875 Z M 453.933594 601.796875 " fill-opacity="1" fill-rule="nonzero"/></svg>