<svg xmlns="http://www.w3.org/2000/svg" xmlns:xlink="http://www.w3.org/1999/xlink" width="1080" zoomAndPan="magnify" viewBox="0 0 810 809.999993" height="1080" preserveAspectRatio="xMidYMid meet" version="1.0"><path fill="#42d0fa" d="M 69.695312 658.308594 C 63.800781 658.308594 59.035156 653.535156 59.035156 647.652344 L 59.035156 217.398438 C 59.035156 185.027344 85.375 158.703125 117.746094 158.703125 L 272.265625 158.703125 C 301.863281 158.703125 326.421875 180.734375 330.398438 209.257812 L 593.734375 209.257812 C 629.578125 209.257812 658.742188 238.429688 658.742188 274.296875 L 658.742188 348.429688 C 658.742188 354.3125 653.976562 359.085938 648.082031 359.085938 C 642.1875 359.085938 637.425781 354.3125 637.425781 348.429688 L 637.425781 274.296875 C 637.425781 250.1875 617.824219 230.574219 593.734375 230.574219 L 320.304688 230.574219 C 314.410156 230.574219 309.644531 225.800781 309.644531 219.914062 L 309.644531 217.398438 C 309.644531 196.785156 292.878906 180.019531 272.265625 180.019531 L 117.746094 180.019531 C 97.121094 180.019531 80.355469 196.785156 80.355469 217.398438 L 80.355469 647.652344 C 80.355469 653.546875 75.589844 658.308594 69.695312 658.308594 Z M 69.695312 658.308594 " fill-opacity="1" fill-rule="nonzero"/><path fill="#42d0fa" d="M 607.644531 697.738281 L 102.664062 697.738281 C 88.890625 697.738281 76.816406 692.300781 68.652344 682.410156 C 60.527344 672.582031 57.363281 659.183594 59.964844 645.636719 L 110.144531 385.828125 C 115.292969 359.320312 141.28125 337.757812 168.066406 337.757812 L 673.035156 337.757812 C 686.828125 337.757812 698.925781 343.214844 707.089844 353.117188 C 715.210938 362.957031 718.367188 376.355469 715.746094 389.871094 L 665.5625 649.667969 C 660.414062 676.183594 634.441406 697.738281 607.644531 697.738281 Z M 168.054688 359.085938 C 151.257812 359.085938 134.308594 373.199219 131.058594 389.890625 L 80.886719 649.675781 C 79.480469 657.054688 80.960938 663.863281 85.085938 668.839844 C 89.125 673.734375 95.371094 676.417969 102.664062 676.417969 L 607.644531 676.417969 C 624.453125 676.417969 641.390625 662.316406 644.628906 645.625 L 694.8125 385.828125 C 696.230469 378.476562 694.746094 371.675781 690.632812 366.695312 C 686.582031 361.785156 680.324219 359.085938 673.023438 359.085938 Z M 168.054688 359.085938 " fill-opacity="1" fill-rule="nonzero"/><path fill="#42d0fa" d="M 120.941406 396.988281 C 115.046875 396.988281 110.285156 392.214844 110.285156 386.332031 L 110.285156 286.800781 C 110.285156 277.023438 118.226562 269.085938 127.988281 269.085938 L 578.609375 269.085938 C 588.351562 269.085938 596.28125 277.035156 596.28125 286.800781 L 596.28125 348.4375 C 596.28125 354.324219 591.515625 359.097656 585.621094 359.097656 C 579.726562 359.097656 574.964844 354.324219 574.964844 348.4375 L 574.964844 290.402344 L 131.601562 290.402344 L 131.601562 386.332031 C 131.601562 392.214844 126.835938 396.988281 120.941406 396.988281 Z M 120.941406 396.988281 " fill-opacity="1" fill-rule="nonzero"/></svg>