<svg xmlns="http://www.w3.org/2000/svg" xmlns:xlink="http://www.w3.org/1999/xlink" width="1080" zoomAndPan="magnify" viewBox="0 0 810 809.999993" height="1080" preserveAspectRatio="xMidYMid meet" version="1.0"><defs><clipPath id="56311635bd"><path d="M 89.023438 279 L 727 279 L 727 586 L 89.023438 586 Z M 89.023438 279 " clip-rule="nonzero"/></clipPath><clipPath id="bc0e287497"><path d="M 89.023438 87 L 728.773438 87 L 728.773438 724.761719 L 89.023438 724.761719 Z M 89.023438 87 " clip-rule="nonzero"/></clipPath></defs><g clip-path="url(#56311635bd)"><path fill="#42d0fa" d="M 104.261719 585.105469 C 102.242188 585.128906 100.304688 584.746094 98.445312 583.949219 C 96.589844 583.152344 94.972656 582.015625 93.597656 580.535156 C 92.882812 579.824219 92.246094 579.054688 91.683594 578.21875 C 91.121094 577.386719 90.648438 576.503906 90.261719 575.574219 C 89.875 574.648438 89.582031 573.691406 89.382812 572.703125 C 89.1875 571.71875 89.089844 570.722656 89.089844 569.714844 C 89.089844 568.710938 89.1875 567.714844 89.382812 566.726562 C 89.582031 565.742188 89.875 564.785156 90.261719 563.855469 C 90.648438 562.925781 91.121094 562.046875 91.683594 561.210938 C 92.246094 560.375 92.882812 559.605469 93.597656 558.898438 L 281.015625 376.046875 C 281.722656 375.355469 282.488281 374.738281 283.3125 374.195312 C 284.136719 373.652344 285.007812 373.195312 285.921875 372.824219 C 286.835938 372.449219 287.777344 372.167969 288.746094 371.976562 C 289.714844 371.789062 290.695312 371.691406 291.683594 371.691406 C 292.671875 371.691406 293.648438 371.789062 294.617188 371.976562 C 295.585938 372.167969 296.527344 372.449219 297.445312 372.824219 C 298.359375 373.195312 299.226562 373.652344 300.054688 374.195312 C 300.878906 374.738281 301.644531 375.355469 302.347656 376.046875 L 374.574219 447.054688 L 552.851562 283.097656 C 553.558594 282.46875 554.316406 281.90625 555.125 281.410156 C 555.933594 280.917969 556.78125 280.503906 557.667969 280.164062 C 558.554688 279.828125 559.460938 279.570312 560.394531 279.398438 C 561.328125 279.226562 562.265625 279.140625 563.214844 279.140625 C 564.160156 279.140625 565.101562 279.226562 566.035156 279.398438 C 566.964844 279.570312 567.875 279.828125 568.761719 280.164062 C 569.644531 280.503906 570.492188 280.917969 571.300781 281.410156 C 572.109375 281.90625 572.867188 282.46875 573.574219 283.097656 L 722.292969 421.152344 C 722.945312 421.847656 723.527344 422.601562 724.039062 423.410156 C 724.550781 424.21875 724.984375 425.066406 725.335938 425.957031 C 725.6875 426.847656 725.953125 427.761719 726.132812 428.699219 C 726.3125 429.640625 726.402344 430.585938 726.40625 431.542969 C 726.40625 432.5 726.316406 433.449219 726.140625 434.390625 C 725.960938 435.328125 725.699219 436.242188 725.347656 437.132812 C 725 438.023438 724.570312 438.875 724.058594 439.683594 C 723.550781 440.492188 722.96875 441.246094 722.316406 441.949219 C 721.664062 442.648438 720.953125 443.28125 720.183594 443.847656 C 719.410156 444.414062 718.59375 444.902344 717.730469 445.3125 C 716.867188 445.726562 715.972656 446.054688 715.046875 446.296875 C 714.121094 446.539062 713.183594 446.695312 712.230469 446.761719 C 711.273438 446.828125 710.324219 446.804688 709.371094 446.691406 C 708.421875 446.582031 707.492188 446.378906 706.578125 446.09375 C 705.667969 445.804688 704.789062 445.433594 703.949219 444.980469 C 703.105469 444.527344 702.3125 444 701.570312 443.398438 L 564.128906 315.097656 L 385.546875 479.359375 C 384.835938 480.011719 384.070312 480.59375 383.25 481.101562 C 382.433594 481.613281 381.574219 482.042969 380.671875 482.394531 C 379.773438 482.742188 378.851562 483.007812 377.902344 483.1875 C 376.953125 483.363281 375.996094 483.453125 375.03125 483.453125 C 374.066406 483.453125 373.109375 483.363281 372.160156 483.1875 C 371.214844 483.007812 370.289062 482.742188 369.390625 482.394531 C 368.492188 482.042969 367.632812 481.613281 366.8125 481.101562 C 365.992188 480.59375 365.226562 480.011719 364.519531 479.359375 L 292.597656 406.523438 L 115.84375 579.621094 C 115.132812 580.46875 114.34375 581.234375 113.46875 581.910156 C 112.59375 582.589844 111.65625 583.164062 110.65625 583.640625 C 109.65625 584.113281 108.617188 584.472656 107.539062 584.71875 C 106.460938 584.96875 105.367188 585.097656 104.261719 585.105469 Z M 104.261719 585.105469 " fill-opacity="1" fill-rule="nonzero"/></g><path fill="#42d0fa" d="M 256.636719 308.699219 C 255.550781 308.703125 254.46875 308.679688 253.386719 308.632812 C 252.300781 308.585938 251.21875 308.511719 250.140625 308.410156 C 249.0625 308.308594 247.984375 308.179688 246.910156 308.023438 C 245.839844 307.871094 244.769531 307.6875 243.703125 307.480469 C 242.640625 307.273438 241.582031 307.042969 240.527344 306.78125 C 239.476562 306.523438 238.429688 306.238281 237.390625 305.929688 C 236.351562 305.617188 235.320312 305.28125 234.296875 304.921875 C 233.277344 304.558594 232.261719 304.171875 231.261719 303.761719 C 230.257812 303.351562 229.261719 302.914062 228.28125 302.453125 C 227.300781 301.996094 226.328125 301.511719 225.371094 301.003906 C 224.414062 300.496094 223.46875 299.964844 222.535156 299.410156 C 221.605469 298.855469 220.6875 298.28125 219.78125 297.679688 C 218.878906 297.082031 217.988281 296.460938 217.117188 295.816406 C 216.242188 295.171875 215.386719 294.507812 214.546875 293.824219 C 213.707031 293.140625 212.882812 292.433594 212.078125 291.707031 C 211.269531 290.980469 210.484375 290.238281 209.714844 289.472656 C 208.945312 288.707031 208.195312 287.925781 207.464844 287.125 C 206.734375 286.324219 206.023438 285.503906 205.332031 284.667969 C 204.644531 283.832031 203.972656 282.980469 203.324219 282.109375 C 202.675781 281.242188 202.050781 280.355469 201.445312 279.457031 C 200.839844 278.554688 200.257812 277.640625 199.699219 276.710938 C 199.140625 275.785156 198.601562 274.84375 198.089844 273.886719 C 197.574219 272.933594 197.085938 271.964844 196.621094 270.984375 C 196.152344 270.007812 195.710938 269.015625 195.292969 268.015625 C 194.878906 267.015625 194.484375 266.003906 194.117188 264.984375 C 193.75 263.964844 193.40625 262.933594 193.089844 261.898438 C 192.773438 260.859375 192.480469 259.816406 192.214844 258.765625 C 191.949219 257.714844 191.710938 256.65625 191.496094 255.59375 C 191.285156 254.53125 191.097656 253.464844 190.9375 252.390625 C 190.773438 251.320312 190.640625 250.242188 190.53125 249.164062 C 190.421875 248.085938 190.34375 247.003906 190.289062 245.921875 C 190.230469 244.835938 190.203125 243.753906 190.203125 242.667969 C 190.199219 241.585938 190.226562 240.5 190.277344 239.417969 C 190.328125 238.335938 190.40625 237.253906 190.511719 236.175781 C 190.617188 235.09375 190.746094 234.019531 190.90625 232.945312 C 191.0625 231.875 191.246094 230.804688 191.457031 229.742188 C 191.667969 228.675781 191.90625 227.621094 192.167969 226.566406 C 192.429688 225.515625 192.71875 224.46875 193.03125 223.433594 C 193.34375 222.394531 193.683594 221.363281 194.046875 220.34375 C 194.414062 219.320312 194.800781 218.308594 195.214844 217.308594 C 195.628906 216.304688 196.070312 215.316406 196.53125 214.332031 C 196.996094 213.351562 197.480469 212.386719 197.992188 211.429688 C 198.503906 210.472656 199.039062 209.527344 199.59375 208.597656 C 200.152344 207.667969 200.730469 206.75 201.332031 205.847656 C 201.933594 204.949219 202.558594 204.0625 203.203125 203.191406 C 203.851562 202.320312 204.515625 201.464844 205.203125 200.625 C 205.894531 199.785156 206.601562 198.964844 207.328125 198.164062 C 208.058594 197.359375 208.804688 196.574219 209.570312 195.808594 C 210.339844 195.039062 211.125 194.292969 211.925781 193.566406 C 212.730469 192.835938 213.550781 192.128906 214.390625 191.441406 C 215.226562 190.753906 216.082031 190.085938 216.953125 189.441406 C 217.824219 188.792969 218.710938 188.171875 219.613281 187.570312 C 220.515625 186.964844 221.429688 186.386719 222.363281 185.828125 C 223.292969 185.273438 224.234375 184.738281 225.191406 184.226562 C 226.148438 183.71875 227.117188 183.230469 228.097656 182.769531 C 229.078125 182.304688 230.070312 181.867188 231.074219 181.453125 C 232.074219 181.039062 233.085938 180.648438 234.109375 180.285156 C 235.128906 179.917969 236.160156 179.582031 237.195312 179.265625 C 238.234375 178.953125 239.28125 178.664062 240.332031 178.402344 C 241.382812 178.140625 242.441406 177.902344 243.503906 177.695312 C 244.570312 177.484375 245.636719 177.300781 246.710938 177.140625 C 247.785156 176.984375 248.859375 176.851562 249.9375 176.746094 C 251.019531 176.644531 252.097656 176.566406 253.183594 176.511719 C 254.265625 176.460938 255.347656 176.4375 256.433594 176.4375 C 257.519531 176.441406 258.601562 176.46875 259.683594 176.523438 C 260.769531 176.578125 261.847656 176.660156 262.929688 176.765625 C 264.007812 176.875 265.082031 177.011719 266.15625 177.171875 C 267.226562 177.332031 268.296875 177.519531 269.359375 177.734375 C 270.421875 177.945312 271.480469 178.1875 272.53125 178.453125 C 273.582031 178.71875 274.625 179.007812 275.664062 179.324219 C 276.699219 179.644531 277.726562 179.984375 278.75 180.351562 C 279.769531 180.71875 280.777344 181.113281 281.78125 181.53125 C 282.78125 181.945312 283.769531 182.390625 284.75 182.855469 C 285.730469 183.320312 286.695312 183.8125 287.652344 184.324219 C 288.605469 184.835938 289.546875 185.375 290.476562 185.933594 C 291.40625 186.496094 292.320312 187.078125 293.21875 187.679688 C 294.121094 188.285156 295.003906 188.914062 295.875 189.5625 C 296.742188 190.210938 297.597656 190.878906 298.433594 191.570312 C 299.269531 192.261719 300.085938 192.96875 300.886719 193.699219 C 301.691406 194.429688 302.472656 195.179688 303.238281 195.949219 C 304 196.71875 304.746094 197.507812 305.472656 198.3125 C 306.199219 199.117188 306.902344 199.941406 307.589844 200.78125 C 308.273438 201.621094 308.9375 202.480469 309.582031 203.351562 C 310.222656 204.226562 310.84375 205.113281 311.445312 206.019531 C 312.042969 206.921875 312.621094 207.839844 313.175781 208.773438 C 313.730469 209.703125 314.261719 210.648438 314.765625 211.605469 C 315.273438 212.566406 315.757812 213.535156 316.21875 214.515625 C 316.679688 215.5 317.113281 216.492188 317.527344 217.496094 C 317.9375 218.5 318.324219 219.511719 318.683594 220.535156 C 319.046875 221.558594 319.382812 222.585938 319.691406 223.625 C 320.003906 224.664062 320.289062 225.710938 320.546875 226.765625 C 320.804688 227.816406 321.039062 228.875 321.246094 229.941406 C 321.453125 231.003906 321.632812 232.074219 321.789062 233.148438 C 321.941406 234.21875 322.070312 235.296875 322.171875 236.375 C 322.273438 237.457031 322.347656 238.539062 322.398438 239.621094 C 322.445312 240.703125 322.46875 241.789062 322.460938 242.871094 C 322.457031 243.949219 322.425781 245.023438 322.367188 246.097656 C 322.3125 247.171875 322.226562 248.246094 322.117188 249.316406 C 322.007812 250.386719 321.871094 251.453125 321.710938 252.515625 C 321.546875 253.578125 321.359375 254.640625 321.148438 255.691406 C 320.933594 256.746094 320.695312 257.796875 320.429688 258.839844 C 320.164062 259.882812 319.875 260.917969 319.558594 261.945312 C 319.246094 262.976562 318.90625 263.996094 318.539062 265.007812 C 318.175781 266.019531 317.785156 267.023438 317.371094 268.015625 C 316.957031 269.007812 316.519531 269.992188 316.058594 270.964844 C 315.59375 271.933594 315.109375 272.894531 314.601562 273.84375 C 314.09375 274.789062 313.558594 275.726562 313.003906 276.648438 C 312.453125 277.570312 311.875 278.476562 311.277344 279.371094 C 310.675781 280.265625 310.058594 281.144531 309.414062 282.007812 C 308.773438 282.871094 308.109375 283.71875 307.429688 284.550781 C 306.746094 285.382812 306.042969 286.195312 305.320312 286.992188 C 304.597656 287.789062 303.855469 288.570312 303.09375 289.328125 C 302.332031 290.089844 301.554688 290.832031 300.757812 291.554688 C 299.960938 292.277344 299.144531 292.980469 298.316406 293.664062 C 297.484375 294.347656 296.636719 295.007812 295.773438 295.652344 C 294.910156 296.292969 294.03125 296.914062 293.136719 297.511719 C 292.242188 298.109375 291.332031 298.6875 290.410156 299.242188 C 289.488281 299.796875 288.554688 300.328125 287.605469 300.835938 C 286.660156 301.34375 285.699219 301.832031 284.726562 302.292969 C 283.753906 302.753906 282.773438 303.191406 281.78125 303.605469 C 280.785156 304.019531 279.785156 304.410156 278.773438 304.773438 C 277.761719 305.140625 276.738281 305.480469 275.710938 305.796875 C 274.683594 306.109375 273.648438 306.402344 272.605469 306.664062 C 271.5625 306.929688 270.511719 307.167969 269.457031 307.382812 C 268.402344 307.597656 267.34375 307.785156 266.28125 307.945312 C 265.214844 308.109375 264.148438 308.242188 263.078125 308.355469 C 262.007812 308.464844 260.9375 308.546875 259.863281 308.605469 C 258.789062 308.660156 257.710938 308.691406 256.636719 308.699219 Z M 256.636719 207.214844 C 255.464844 207.207031 254.300781 207.253906 253.132812 207.359375 C 251.96875 207.464844 250.8125 207.625 249.664062 207.84375 C 248.511719 208.0625 247.378906 208.339844 246.253906 208.667969 C 245.132812 209 244.03125 209.382812 242.945312 209.824219 C 241.863281 210.261719 240.800781 210.753906 239.765625 211.296875 C 238.730469 211.839844 237.722656 212.433594 236.746094 213.078125 C 235.765625 213.71875 234.824219 214.410156 233.914062 215.144531 C 233.003906 215.878906 232.132812 216.660156 231.300781 217.480469 C 230.46875 218.300781 229.675781 219.160156 228.925781 220.058594 C 228.179688 220.960938 227.476562 221.894531 226.820312 222.863281 C 226.164062 223.828125 225.554688 224.828125 225 225.855469 C 224.441406 226.882812 223.933594 227.9375 223.480469 229.015625 C 223.023438 230.09375 222.625 231.191406 222.277344 232.308594 C 221.929688 233.425781 221.640625 234.558594 221.402344 235.703125 C 221.167969 236.847656 220.992188 238.003906 220.871094 239.167969 C 220.746094 240.332031 220.683594 241.496094 220.675781 242.667969 C 220.671875 243.835938 220.722656 245.003906 220.828125 246.167969 C 220.9375 247.335938 221.101562 248.492188 221.324219 249.640625 C 221.546875 250.789062 221.824219 251.921875 222.160156 253.042969 C 222.492188 254.164062 222.878906 255.269531 223.324219 256.351562 C 223.765625 257.433594 224.257812 258.492188 224.804688 259.527344 C 225.351562 260.5625 225.949219 261.566406 226.59375 262.542969 C 227.238281 263.519531 227.929688 264.460938 228.667969 265.367188 C 229.40625 266.273438 230.1875 267.144531 231.011719 267.976562 C 231.835938 268.804688 232.699219 269.59375 233.597656 270.339844 C 234.5 271.085938 235.4375 271.785156 236.40625 272.4375 C 237.375 273.09375 238.375 273.699219 239.40625 274.253906 C 240.433594 274.808594 241.488281 275.3125 242.570312 275.761719 C 243.648438 276.214844 244.746094 276.613281 245.867188 276.957031 C 246.984375 277.300781 248.117188 277.585938 249.261719 277.820312 C 250.410156 278.050781 251.566406 278.226562 252.730469 278.34375 C 253.894531 278.460938 255.058594 278.523438 256.230469 278.527344 C 257.398438 278.53125 258.566406 278.476562 259.730469 278.363281 C 260.894531 278.253906 262.050781 278.085938 263.199219 277.859375 C 264.347656 277.632812 265.480469 277.351562 266.601562 277.015625 C 267.722656 276.679688 268.824219 276.289062 269.90625 275.84375 C 270.988281 275.398438 272.042969 274.898438 273.078125 274.351562 C 274.109375 273.800781 275.113281 273.203125 276.085938 272.554688 C 277.0625 271.90625 278 271.210938 278.90625 270.46875 C 279.8125 269.730469 280.679688 268.945312 281.507812 268.121094 C 282.335938 267.292969 283.121094 266.429688 283.863281 265.527344 C 284.609375 264.621094 285.304688 263.683594 285.957031 262.710938 C 286.609375 261.742188 287.210938 260.738281 287.761719 259.707031 C 288.3125 258.675781 288.816406 257.621094 289.261719 256.539062 C 289.710938 255.460938 290.105469 254.359375 290.445312 253.242188 C 290.785156 252.121094 291.070312 250.988281 291.300781 249.839844 C 291.527344 248.695312 291.699219 247.539062 291.816406 246.375 C 291.929688 245.210938 291.988281 244.042969 291.988281 242.871094 C 291.988281 241.710938 291.929688 240.550781 291.816406 239.394531 C 291.703125 238.242188 291.535156 237.09375 291.308594 235.953125 C 291.085938 234.8125 290.804688 233.6875 290.46875 232.578125 C 290.132812 231.464844 289.746094 230.371094 289.304688 229.296875 C 288.859375 228.222656 288.367188 227.171875 287.824219 226.148438 C 287.277344 225.121094 286.683594 224.125 286.042969 223.15625 C 285.398438 222.191406 284.710938 221.253906 283.980469 220.355469 C 283.246094 219.453125 282.46875 218.59375 281.652344 217.765625 C 280.835938 216.941406 279.976562 216.160156 279.085938 215.417969 C 278.191406 214.675781 277.261719 213.980469 276.300781 213.332031 C 275.335938 212.679688 274.34375 212.078125 273.324219 211.523438 C 272.304688 210.972656 271.257812 210.46875 270.1875 210.019531 C 269.117188 209.566406 268.027344 209.167969 266.917969 208.824219 C 265.808594 208.480469 264.6875 208.1875 263.550781 207.953125 C 262.410156 207.71875 261.265625 207.539062 260.109375 207.417969 C 258.957031 207.292969 257.796875 207.226562 256.636719 207.214844 Z M 256.636719 207.214844 " fill-opacity="1" fill-rule="nonzero"/><g clip-path="url(#bc0e287497)"><path fill="#42d0fa" d="M 622.335938 725.59375 L 195.6875 725.59375 C 193.960938 725.578125 192.234375 725.523438 190.511719 725.425781 C 188.789062 725.324219 187.066406 725.1875 185.351562 725.003906 C 183.632812 724.820312 181.921875 724.597656 180.214844 724.332031 C 178.507812 724.066406 176.8125 723.761719 175.121094 723.414062 C 173.429688 723.066406 171.746094 722.675781 170.074219 722.246094 C 168.402344 721.820312 166.742188 721.347656 165.089844 720.839844 C 163.441406 720.328125 161.804688 719.777344 160.183594 719.191406 C 158.558594 718.601562 156.953125 717.972656 155.359375 717.304688 C 153.765625 716.636719 152.191406 715.929688 150.632812 715.1875 C 149.074219 714.441406 147.535156 713.660156 146.015625 712.84375 C 144.496094 712.023438 142.996094 711.167969 141.519531 710.277344 C 140.039062 709.386719 138.582031 708.457031 137.148438 707.496094 C 135.714844 706.535156 134.308594 705.535156 132.921875 704.507812 C 131.535156 703.476562 130.175781 702.410156 128.84375 701.316406 C 127.511719 700.21875 126.203125 699.089844 124.925781 697.929688 C 123.644531 696.769531 122.398438 695.578125 121.175781 694.359375 C 119.953125 693.136719 118.765625 691.886719 117.605469 690.609375 C 116.445312 689.328125 115.316406 688.023438 114.21875 686.691406 C 113.121094 685.355469 112.058594 683.996094 111.027344 682.613281 C 109.996094 681.226562 109 679.816406 108.039062 678.382812 C 107.074219 676.949219 106.148438 675.492188 105.257812 674.015625 C 104.363281 672.535156 103.511719 671.039062 102.691406 669.515625 C 101.871094 667.996094 101.089844 666.457031 100.347656 664.898438 C 99.601562 663.34375 98.898438 661.765625 98.230469 660.175781 C 97.5625 658.582031 96.933594 656.972656 96.34375 655.351562 C 95.753906 653.730469 95.203125 652.09375 94.695312 650.441406 C 94.183594 648.792969 93.714844 647.132812 93.285156 645.460938 C 92.855469 643.789062 92.46875 642.105469 92.121094 640.414062 C 91.773438 638.722656 91.464844 637.023438 91.199219 635.316406 C 90.933594 633.613281 90.710938 631.902344 90.53125 630.183594 C 90.347656 628.464844 90.207031 626.746094 90.109375 625.023438 C 90.011719 623.296875 89.953125 621.574219 89.9375 619.847656 L 89.9375 193.199219 C 89.953125 191.472656 90.011719 189.746094 90.109375 188.023438 C 90.207031 186.300781 90.347656 184.578125 90.53125 182.863281 C 90.710938 181.144531 90.933594 179.433594 91.199219 177.726562 C 91.464844 176.019531 91.773438 174.320312 92.121094 172.628906 C 92.46875 170.9375 92.855469 169.257812 93.285156 167.585938 C 93.714844 165.914062 94.183594 164.25 94.695312 162.601562 C 95.203125 160.953125 95.753906 159.316406 96.34375 157.695312 C 96.933594 156.070312 97.5625 154.464844 98.230469 152.871094 C 98.898438 151.277344 99.601562 149.703125 100.347656 148.144531 C 101.089844 146.585938 101.871094 145.046875 102.691406 143.527344 C 103.511719 142.007812 104.363281 140.507812 105.257812 139.03125 C 106.148438 137.550781 107.074219 136.09375 108.039062 134.660156 C 109 133.226562 109.996094 131.816406 111.027344 130.433594 C 112.058594 129.046875 113.121094 127.6875 114.21875 126.355469 C 115.316406 125.019531 116.445312 123.714844 117.605469 122.4375 C 118.765625 121.15625 119.953125 119.90625 121.175781 118.6875 C 122.398438 117.464844 123.648438 116.277344 124.925781 115.117188 C 126.203125 113.957031 127.511719 112.828125 128.84375 111.730469 C 130.175781 110.632812 131.535156 109.570312 132.921875 108.539062 C 134.308594 107.507812 135.714844 106.511719 137.148438 105.550781 C 138.582031 104.585938 140.039062 103.660156 141.519531 102.769531 C 142.996094 101.875 144.496094 101.019531 146.015625 100.203125 C 147.535156 99.382812 149.074219 98.601562 150.632812 97.859375 C 152.191406 97.113281 153.765625 96.410156 155.359375 95.742188 C 156.953125 95.074219 158.558594 94.445312 160.183594 93.855469 C 161.804688 93.265625 163.441406 92.714844 165.089844 92.207031 C 166.742188 91.695312 168.402344 91.226562 170.074219 90.796875 C 171.746094 90.367188 173.429688 89.980469 175.121094 89.632812 C 176.808594 89.285156 178.507812 88.976562 180.214844 88.710938 C 181.921875 88.445312 183.632812 88.222656 185.351562 88.042969 C 187.066406 87.859375 188.789062 87.71875 190.511719 87.621094 C 192.234375 87.523438 193.960938 87.464844 195.6875 87.449219 L 622.335938 87.449219 C 624.082031 87.449219 625.824219 87.492188 627.570312 87.578125 C 629.3125 87.664062 631.054688 87.792969 632.789062 87.964844 C 634.527344 88.136719 636.257812 88.347656 637.984375 88.605469 C 639.710938 88.859375 641.433594 89.160156 643.144531 89.5 C 644.855469 89.839844 646.558594 90.222656 648.253906 90.648438 C 649.945312 91.070312 651.628906 91.535156 653.296875 92.042969 C 654.96875 92.550781 656.625 93.097656 658.269531 93.683594 C 659.914062 94.273438 661.539062 94.902344 663.152344 95.570312 C 664.765625 96.238281 666.359375 96.945312 667.9375 97.691406 C 669.515625 98.4375 671.074219 99.222656 672.617188 100.042969 C 674.15625 100.867188 675.671875 101.726562 677.171875 102.625 C 678.667969 103.523438 680.140625 104.457031 681.59375 105.425781 C 683.042969 106.394531 684.472656 107.402344 685.875 108.441406 C 687.277344 109.480469 688.652344 110.554688 690 111.660156 C 691.351562 112.769531 692.671875 113.910156 693.964844 115.082031 C 695.257812 116.253906 696.523438 117.457031 697.757812 118.691406 C 698.992188 119.925781 700.195312 121.1875 701.367188 122.484375 C 702.539062 123.777344 703.679688 125.097656 704.785156 126.445312 C 705.894531 127.796875 706.96875 129.171875 708.007812 130.574219 C 709.046875 131.976562 710.050781 133.402344 711.023438 134.855469 C 711.992188 136.304688 712.925781 137.78125 713.824219 139.277344 C 714.71875 140.773438 715.578125 142.292969 716.402344 143.832031 C 717.226562 145.371094 718.011719 146.929688 718.757812 148.507812 C 719.503906 150.085938 720.210938 151.683594 720.878906 153.292969 C 721.546875 154.90625 722.175781 156.535156 722.761719 158.179688 C 723.351562 159.824219 723.898438 161.480469 724.40625 163.148438 C 724.910156 164.820312 725.375 166.503906 725.800781 168.195312 C 726.226562 169.890625 726.605469 171.589844 726.949219 173.304688 C 727.289062 175.015625 727.585938 176.734375 727.84375 178.460938 C 728.097656 180.1875 728.3125 181.921875 728.484375 183.65625 C 728.65625 185.394531 728.785156 187.136719 728.867188 188.878906 C 728.953125 190.621094 728.996094 192.367188 728.996094 194.113281 L 728.996094 619.847656 C 728.984375 621.582031 728.925781 623.316406 728.824219 625.050781 C 728.726562 626.785156 728.585938 628.511719 728.398438 630.238281 C 728.214844 631.964844 727.988281 633.6875 727.722656 635.402344 C 727.453125 637.117188 727.144531 638.824219 726.792969 640.527344 C 726.441406 642.226562 726.046875 643.917969 725.613281 645.597656 C 725.179688 647.277344 724.707031 648.949219 724.191406 650.605469 C 723.675781 652.261719 723.117188 653.90625 722.523438 655.539062 C 721.925781 657.167969 721.292969 658.785156 720.617188 660.382812 C 719.941406 661.984375 719.230469 663.566406 718.476562 665.128906 C 717.726562 666.695312 716.9375 668.242188 716.109375 669.765625 C 715.28125 671.292969 714.417969 672.796875 713.515625 674.28125 C 712.613281 675.765625 711.679688 677.226562 710.707031 678.667969 C 709.734375 680.105469 708.726562 681.519531 707.683594 682.90625 C 706.644531 684.296875 705.570312 685.660156 704.460938 686.996094 C 703.355469 688.332031 702.214844 689.640625 701.042969 690.921875 C 699.871094 692.203125 698.667969 693.457031 697.433594 694.679688 C 696.203125 695.898438 694.941406 697.089844 693.648438 698.253906 C 692.359375 699.414062 691.039062 700.542969 689.695312 701.636719 C 688.347656 702.734375 686.976562 703.796875 685.578125 704.828125 C 684.179688 705.855469 682.757812 706.851562 681.308594 707.808594 C 679.863281 708.769531 678.394531 709.695312 676.902344 710.582031 C 675.410156 711.46875 673.898438 712.320312 672.363281 713.136719 C 670.832031 713.949219 669.277344 714.726562 667.707031 715.464844 C 666.136719 716.203125 664.546875 716.902344 662.941406 717.5625 C 661.335938 718.222656 659.71875 718.847656 658.082031 719.425781 C 656.445312 720.007812 654.796875 720.550781 653.132812 721.050781 C 651.472656 721.554688 649.796875 722.015625 648.113281 722.433594 C 646.429688 722.851562 644.734375 723.230469 643.03125 723.566406 C 641.328125 723.90625 639.617188 724.199219 637.902344 724.453125 C 636.183594 724.707031 634.460938 724.917969 632.734375 725.085938 C 631.003906 725.257812 629.273438 725.382812 627.539062 725.46875 C 625.804688 725.550781 624.070312 725.59375 622.335938 725.59375 Z M 195.6875 117.925781 C 194.441406 117.925781 193.195312 117.957031 191.949219 118.015625 C 190.703125 118.078125 189.460938 118.171875 188.21875 118.292969 C 186.976562 118.414062 185.742188 118.566406 184.507812 118.75 C 183.273438 118.933594 182.046875 119.144531 180.824219 119.390625 C 179.601562 119.632812 178.382812 119.90625 177.175781 120.207031 C 175.964844 120.511719 174.765625 120.84375 173.570312 121.207031 C 172.378906 121.566406 171.195312 121.957031 170.019531 122.378906 C 168.847656 122.800781 167.683594 123.246094 166.53125 123.726562 C 165.378906 124.203125 164.238281 124.707031 163.113281 125.238281 C 161.984375 125.773438 160.871094 126.332031 159.773438 126.921875 C 158.671875 127.507812 157.589844 128.125 156.519531 128.765625 C 155.449219 129.40625 154.394531 130.074219 153.359375 130.765625 C 152.324219 131.457031 151.304688 132.175781 150.300781 132.917969 C 149.300781 133.660156 148.316406 134.429688 147.355469 135.21875 C 146.390625 136.011719 145.445312 136.824219 144.523438 137.660156 C 143.597656 138.5 142.695312 139.359375 141.8125 140.238281 C 140.933594 141.121094 140.074219 142.023438 139.234375 142.949219 C 138.398438 143.871094 137.585938 144.816406 136.792969 145.78125 C 136.003906 146.742188 135.234375 147.726562 134.492188 148.726562 C 133.75 149.730469 133.03125 150.75 132.339844 151.785156 C 131.648438 152.820312 130.980469 153.875 130.339844 154.945312 C 129.699219 156.015625 129.082031 157.097656 128.496094 158.199219 C 127.90625 159.296875 127.347656 160.410156 126.8125 161.539062 C 126.28125 162.664062 125.777344 163.804688 125.300781 164.957031 C 124.820312 166.109375 124.375 167.273438 123.953125 168.445312 C 123.53125 169.621094 123.140625 170.804688 122.78125 171.996094 C 122.417969 173.191406 122.085938 174.390625 121.78125 175.601562 C 121.480469 176.808594 121.207031 178.027344 120.964844 179.25 C 120.71875 180.472656 120.507812 181.699219 120.324219 182.933594 C 120.140625 184.167969 119.988281 185.402344 119.867188 186.644531 C 119.746094 187.886719 119.652344 189.128906 119.589844 190.375 C 119.53125 191.621094 119.5 192.867188 119.5 194.113281 L 119.5 619.847656 C 119.5 621.09375 119.53125 622.339844 119.589844 623.585938 C 119.652344 624.832031 119.746094 626.074219 119.867188 627.3125 C 119.988281 628.554688 120.140625 629.792969 120.324219 631.027344 C 120.507812 632.257812 120.71875 633.488281 120.964844 634.710938 C 121.207031 635.933594 121.480469 637.148438 121.78125 638.359375 C 122.085938 639.566406 122.417969 640.769531 122.78125 641.960938 C 123.140625 643.15625 123.53125 644.339844 123.953125 645.511719 C 124.375 646.6875 124.820312 647.851562 125.300781 649.003906 C 125.777344 650.152344 126.28125 651.292969 126.8125 652.421875 C 127.347656 653.546875 127.90625 654.660156 128.496094 655.761719 C 129.082031 656.859375 129.699219 657.945312 130.339844 659.015625 C 130.980469 660.085938 131.648438 661.136719 132.339844 662.175781 C 133.03125 663.210938 133.75 664.230469 134.492188 665.230469 C 135.234375 666.234375 136.003906 667.214844 136.792969 668.179688 C 137.585938 669.144531 138.398438 670.085938 139.234375 671.011719 C 140.074219 671.933594 140.933594 672.835938 141.8125 673.71875 C 142.695312 674.601562 143.597656 675.460938 144.523438 676.296875 C 145.445312 677.136719 146.390625 677.949219 147.355469 678.738281 C 148.316406 679.53125 149.300781 680.296875 150.300781 681.039062 C 151.304688 681.785156 152.324219 682.5 153.359375 683.195312 C 154.394531 683.886719 155.449219 684.554688 156.519531 685.195312 C 157.589844 685.835938 158.671875 686.449219 159.773438 687.039062 C 160.871094 687.625 161.984375 688.1875 163.113281 688.71875 C 164.238281 689.253906 165.378906 689.757812 166.53125 690.234375 C 167.683594 690.710938 168.847656 691.160156 170.019531 691.582031 C 171.195312 692 172.378906 692.390625 173.570312 692.753906 C 174.765625 693.113281 175.964844 693.449219 177.175781 693.75 C 178.382812 694.054688 179.601562 694.328125 180.824219 694.570312 C 182.046875 694.8125 183.273438 695.027344 184.507812 695.210938 C 185.742188 695.390625 186.976562 695.542969 188.21875 695.667969 C 189.460938 695.789062 190.703125 695.882812 191.949219 695.941406 C 193.195312 696.003906 194.441406 696.035156 195.6875 696.035156 L 622.335938 696.035156 C 623.582031 696.035156 624.828125 696.003906 626.074219 695.941406 C 627.320312 695.882812 628.5625 695.789062 629.804688 695.667969 C 631.042969 695.542969 632.28125 695.390625 633.515625 695.210938 C 634.746094 695.027344 635.976562 694.8125 637.199219 694.570312 C 638.421875 694.328125 639.636719 694.054688 640.847656 693.75 C 642.058594 693.449219 643.257812 693.113281 644.453125 692.753906 C 645.644531 692.390625 646.828125 692 648 691.582031 C 649.175781 691.160156 650.339844 690.710938 651.492188 690.234375 C 652.644531 689.757812 653.78125 689.253906 654.910156 688.71875 C 656.035156 688.1875 657.148438 687.625 658.25 687.039062 C 659.347656 686.449219 660.433594 685.835938 661.503906 685.195312 C 662.574219 684.554688 663.625 683.886719 664.664062 683.195312 C 665.699219 682.5 666.71875 681.785156 667.71875 681.039062 C 668.722656 680.296875 669.703125 679.53125 670.667969 678.738281 C 671.632812 677.949219 672.574219 677.136719 673.5 676.296875 C 674.421875 675.460938 675.324219 674.601562 676.207031 673.71875 C 677.089844 672.835938 677.949219 671.933594 678.785156 671.011719 C 679.625 670.085938 680.4375 669.144531 681.230469 668.179688 C 682.019531 667.214844 682.785156 666.234375 683.53125 665.230469 C 684.273438 664.230469 684.988281 663.210938 685.683594 662.175781 C 686.375 661.136719 687.042969 660.085938 687.683594 659.015625 C 688.324219 657.945312 688.9375 656.859375 689.527344 655.761719 C 690.113281 654.660156 690.675781 653.546875 691.207031 652.421875 C 691.742188 651.292969 692.246094 650.152344 692.722656 649.003906 C 693.199219 647.851562 693.648438 646.6875 694.070312 645.511719 C 694.488281 644.339844 694.878906 643.15625 695.242188 641.960938 C 695.605469 640.769531 695.9375 639.566406 696.238281 638.359375 C 696.542969 637.148438 696.816406 635.933594 697.058594 634.710938 C 697.300781 633.488281 697.515625 632.257812 697.699219 631.027344 C 697.882812 629.792969 698.035156 628.554688 698.15625 627.3125 C 698.277344 626.074219 698.371094 624.832031 698.429688 623.585938 C 698.492188 622.339844 698.523438 621.09375 698.523438 619.847656 L 698.523438 193.199219 C 698.523438 191.953125 698.492188 190.707031 698.429688 189.460938 C 698.371094 188.214844 698.277344 186.972656 698.15625 185.730469 C 698.035156 184.488281 697.882812 183.253906 697.699219 182.019531 C 697.515625 180.785156 697.300781 179.558594 697.058594 178.335938 C 696.816406 177.113281 696.542969 175.894531 696.238281 174.6875 C 695.9375 173.476562 695.605469 172.277344 695.242188 171.082031 C 694.878906 169.890625 694.488281 168.707031 694.070312 167.53125 C 693.648438 166.359375 693.199219 165.195312 692.722656 164.042969 C 692.246094 162.890625 691.742188 161.75 691.207031 160.625 C 690.675781 159.496094 690.113281 158.382812 689.527344 157.285156 C 688.9375 156.183594 688.324219 155.101562 687.683594 154.03125 C 687.042969 152.960938 686.375 151.90625 685.683594 150.871094 C 684.988281 149.835938 684.273438 148.816406 683.53125 147.8125 C 682.785156 146.8125 682.019531 145.828125 681.230469 144.867188 C 680.4375 143.902344 679.625 142.957031 678.785156 142.035156 C 677.949219 141.109375 677.089844 140.207031 676.207031 139.324219 C 675.324219 138.445312 674.421875 137.585938 673.5 136.746094 C 672.574219 135.910156 671.632812 135.097656 670.667969 134.304688 C 669.703125 133.515625 668.722656 132.746094 667.71875 132.003906 C 666.71875 131.261719 665.699219 130.542969 664.664062 129.851562 C 663.625 129.15625 662.574219 128.492188 661.503906 127.851562 C 660.433594 127.210938 659.347656 126.59375 658.25 126.007812 C 657.148438 125.417969 656.035156 124.859375 654.910156 124.324219 C 653.78125 123.792969 652.644531 123.289062 651.492188 122.808594 C 650.339844 122.332031 649.175781 121.882812 648 121.464844 C 646.828125 121.042969 645.644531 120.652344 644.453125 120.292969 C 643.257812 119.929688 642.058594 119.597656 640.847656 119.292969 C 639.636719 118.992188 638.421875 118.71875 637.199219 118.476562 C 635.976562 118.230469 634.746094 118.019531 633.515625 117.835938 C 632.28125 117.652344 631.042969 117.5 629.804688 117.378906 C 628.5625 117.253906 627.320312 117.164062 626.074219 117.101562 C 624.828125 117.042969 623.582031 117.011719 622.335938 117.011719 Z M 195.6875 117.925781 " fill-opacity="1" fill-rule="nonzero"/></g></svg>