<svg xmlns="http://www.w3.org/2000/svg" xmlns:xlink="http://www.w3.org/1999/xlink" width="1080" zoomAndPan="magnify" viewBox="0 0 810 809.999993" height="1080" preserveAspectRatio="xMidYMid meet" version="1.0"><defs><clipPath id="99b34342f3"><path d="M 134.597656 67 L 675.347656 67 L 675.347656 742.75 L 134.597656 742.75 Z M 134.597656 67 " clip-rule="nonzero"/></clipPath></defs><g clip-path="url(#99b34342f3)"><path fill="#42d0fa" d="M 508.578125 67.613281 L 225.289062 67.613281 C 175.222656 67.613281 134.488281 108.347656 134.488281 158.417969 L 134.488281 651.578125 C 134.488281 701.644531 175.222656 742.382812 225.289062 742.382812 L 584.722656 742.382812 C 634.78125 742.382812 675.515625 701.652344 675.515625 651.578125 L 675.515625 254.195312 Z M 521.8125 154.179688 L 598.074219 239.417969 L 521.8125 239.417969 Z M 584.714844 694.523438 L 225.289062 694.523438 C 201.609375 694.523438 182.347656 675.261719 182.347656 651.578125 L 182.347656 158.417969 C 182.347656 134.734375 201.609375 115.472656 225.289062 115.472656 L 473.953125 115.472656 L 473.953125 287.265625 L 627.65625 287.265625 L 627.65625 651.578125 C 627.648438 675.261719 608.386719 694.523438 584.714844 694.523438 Z M 584.714844 694.523438 " fill-opacity="1" fill-rule="nonzero"/></g><path fill="#42d0fa" d="M 233.714844 551.371094 L 576.273438 551.371094 L 576.273438 599.230469 L 233.714844 599.230469 Z M 233.714844 551.371094 " fill-opacity="1" fill-rule="nonzero"/><path fill="#42d0fa" d="M 233.714844 447.375 L 576.273438 447.375 L 576.273438 495.234375 L 233.714844 495.234375 Z M 233.714844 447.375 " fill-opacity="1" fill-rule="nonzero"/><path fill="#42d0fa" d="M 233.714844 343.394531 L 576.273438 343.394531 L 576.273438 391.253906 L 233.714844 391.253906 Z M 233.714844 343.394531 " fill-opacity="1" fill-rule="nonzero"/></svg>